<?xml version="1.0" encoding="UTF-8"?>
<svg width="1200pt" height="1200pt" version="1.1" viewBox="0 0 1200 1200" xmlns="http://www.w3.org/2000/svg">
 <g>
  <path d="m789.06 85.18h-1.6875v-2.6562c-2.4141 0-2.8945-0.48438-6.5156-1.4492-7.7227-1.9297-22.199-5.3086-42.227-5.3086-46.09 0-118.48 18.34-202.45 106.41-70.941 74.562-138.02 146.47-178.8 208.48-43.918 66.602-53.086 114.38-28.957 150.09 0.24219 0.48438 15.684 24.613 49.469 53.57 31.129 26.785 84.699 63.461 163.6 86.145l0.48438 1.6875c0.48438 0.24219 49.227 18.34 113.41 18.34 24.371 0 47.777-4.1016 70.219-8.6875 74.32-15.445 130.79-42.711 151.3-71.426 18.582-26.301 34.988-122.1 37.883-222.72 3.6211-118-12.066-210.66-41.504-249.99-36.926-48.496-76.738-60.078-84.219-62.492zm-224.66 157.33c-89.039 101.11-244.68 249.27-172.77 336.38 0 0-68.289-43.918-7.9648-139.47 60.086-95.555 187.49-239.61 259.88-280.88 72.391-41.262 151.3-17.613 151.3-17.613 0-0.003906-126.2-16.656-230.45 101.58z"/>
  <path d="m903.44 112.21c-43.918-63.461-98.691-73.84-98.691-73.84s-132.71-49.469-285.7 113.17c-159.5 168.91-293.18 314.18-231.17 406.36 61.051 90.973 129.82 98.934 90.73 202.45-0.96484 0-27.266-2.1719-31.852 16.168-4.8242 18.82 8.9297 23.164 8.9297 23.164l174.22 56.223s-54.535 8.4453-174.22-56.223l-111.48 192.08s-23.406 34.988-17.855 75.527c3.1367 22.922 15.926 47.535 47.297 68.77 87.352 58.152 181.7 35.953 208.73-9.168 27.027-45.125 55.258-197.39 93.867-252.16 4.8242 0.72266 20.512-6.0312 20.512-6.0312s34.508-18.82-9.168-47.535c-2.4141-1.4492-4.8242-3.1367-7.7227-4.8242 6.0312-11.824 25.094-45.605 58.395-62.98 27.508 1.9297 59.844 1.207 93.383-5.793 55.98-11.582 122.58-34.988 147.2-69.496 1.9297-2.6562 3.8594-6.2734 5.793-10.375 9.168-6.7578 16.891-14.238 22.684-22.441 43.426-60.574 70.453-426.15-3.8711-533.04zm-426.86 964.25c-24.855 65.395-89.766 71.906-89.766 71.906 81.559-41.504 82.043-78.906 112.69-172.05 30.645-93.145 54.293-106.9 54.293-106.9-57.43 138.03-50.191 135.86-77.215 207.04zm411.66-448.34c-32.574 45.605-122.82 70.219-160.23 78.184-23.164 4.8242-47.777 8.9297-73.113 8.9297-65.395 0-113.89-17.613-117.76-19.062-156.12-44.883-218.38-142.37-220.79-146.47-27.508-41.023-18.34-94.109 29.199-166.26 41.504-62.98 109.07-135.86 180.73-210.66 48.262-50.672 124.51-111 213.07-111 21.957 0 37.402 3.6211 45.848 5.5508 0.48438 0 0.96484 0.24219 1.4492 0.24219l0.24219-0.24219 4.1016 0.96484c1.9297 0.48438 49.707 11.34 93.383 69.496 45.363 60.324 46.332 202.21 44.398 260.37-2.8945 104.48-20.027 201.24-40.535 229.96z"/>
 </g>
</svg>
